<svg xmlns="http://www.w3.org/2000/svg" width="23" height="21" viewBox="0 0 23 21">
    <path fill="#FFF" fill-rule="evenodd" d="M10.49 8.05c.073.404.223.695.41.896.037.134.08.273.128.414-.67-.255-1.427-.549-2.144-1.27l-.047-.044a2.136 2.136 0 0 0-.214-.212c-.026.03-.055.051-.082.08V7.18c.395-.484.668-1.143.829-1.8.013.026.03.042.059.046.079 0 .175-.183.217-.419.043-.245.011-.455-.07-.469l-.037.015c.117-.574.059-1.498-.18-2.209-.239-.715-1.272-1.014-2.08-1.037H7.193c-.803.023-1.837.322-2.075 1.037-.237.708-.296 1.625-.181 2.2-.075.026-.105.226-.063.463.042.236.137.419.226.418.022-.004.039-.024.053-.054.136.655.367 1.314.715 1.799v.746l-.036-.032c-.05.048-.102.1-.156.16-.049.048-.097.092-.119.161-1.294 1.182-2.672 1.113-3.466 1.908-.817.819-1.069 5.136-1.069 5.136s1.245 1.29 5.676 1.38c-.038.35-.068.688-.091 1.002C2.047 17.527.542 16.211.28 15.938a.989.989 0 0 1-.278-.746C.104 13.44.416 10.36 1.36 9.413c.52-.52 1.15-.757 1.758-.987.543-.203 1.058-.397 1.557-.795.044-.067.098-.129.16-.185a5.85 5.85 0 0 1-.566-1.381c-.184-.198-.332-.486-.403-.886a1.817 1.817 0 0 1 .015-.786 5.994 5.994 0 0 1 .264-2.359C4.55.825 5.99.351 7.12.31c.027-.002.054-.004.12-.003h.045c.029 0 .057 0 .086.003 1.128.045 2.559.52 2.96 1.723.232.691.331 1.542.275 2.253.085.24.11.539.048.896-.073.41-.229.703-.42.901a5.735 5.735 0 0 1-.604 1.322.99.99 0 0 1 .126.163c.241.203.486.356.735.483zm4.457-4.527c.03 0 .058.001.086.004 1.13.045 2.56.52 2.962 1.723.23.691.33 1.542.274 2.253.085.24.11.539.047.896-.072.41-.228.703-.42.901a5.735 5.735 0 0 1-.603 1.322.99.99 0 0 1 .126.163c.524.443 1.067.646 1.637.86.61.229 1.24.465 1.76.986.944.946 1.256 4.027 1.358 5.78a.99.99 0 0 1-.277.745c-.274.284-1.894 1.7-6.918 1.7h-.119c-5.023 0-6.644-1.416-6.917-1.7a.989.989 0 0 1-.278-.746c.101-1.752.414-4.833 1.359-5.779.519-.52 1.149-.757 1.758-.987.543-.203 1.058-.398 1.557-.796.044-.066.098-.128.16-.184a5.85 5.85 0 0 1-.566-1.382c-.184-.197-.333-.485-.403-.885a1.817 1.817 0 0 1 .015-.786 5.994 5.994 0 0 1 .264-2.359c.402-1.209 1.843-1.684 2.974-1.725a.985.985 0 0 1 .08-.004l.04.001h.044zm0 1.003h-.09c-.803.023-1.837.322-2.075 1.037-.237.707-.296 1.625-.182 2.2-.074.026-.104.226-.062.463.042.236.137.419.217.419h.009c.021-.005.038-.025.053-.055.136.655.367 1.314.715 1.799v.746c-.013-.01-.025-.02-.037-.032-.05.047-.1.1-.156.16a4.77 4.77 0 0 1-.145.136l.027.025c-1.294 1.182-2.673 1.113-3.466 1.908-.817.819-1.07 5.135-1.07 5.135s1.339 1.387 6.175 1.387h.119c4.837 0 6.174-1.387 6.174-1.387s-.252-4.316-1.069-5.135c-.814-.815-2.24-.719-3.563-1.997.007-.01.017-.017.026-.027l-.047-.044a2.136 2.136 0 0 0-.214-.212c-.026.03-.055.051-.082.08v-.733c.395-.484.668-1.143.828-1.8.013.026.031.041.05.045h.01c.079 0 .175-.182.217-.418.042-.245.011-.455-.07-.469h-.004c-.01 0-.022.01-.033.015.117-.574.059-1.498-.18-2.209-.239-.715-1.272-1.014-2.075-1.036v-.001z"/>
</svg>
