<?xml version="1.0" encoding="UTF-8"?>
<svg width="28px" height="17px" viewBox="0 0 28 17" version="1.1" xmlns="http://www.w3.org/2000/svg" xmlns:xlink="http://www.w3.org/1999/xlink">
    <!-- Generator: Sketch 50.2 (55047) - http://www.bohemiancoding.com/sketch -->
    <title>Combined Shape</title>
    <desc>Created with Sketch.</desc>
    <defs></defs>
    <g id="Symbols" stroke="none" stroke-width="1" fill="none" fill-rule="evenodd">
        <g id="ui-/-icons-/-row-however" transform="translate(-47.000000, -2.000000)" fill="#008CFD" fill-rule="nonzero">
            <g id="ui-/-icons-/-viewing-blue" transform="translate(47.357714, 1.942778)">
                <path d="M27.2221569,8.58329571 L27.2849804,8.66099413 L26.9010588,9.04948624 C25.4281959,10.5610737 23.5923526,12.4328993 21.4354112,13.9091693 C18.9015285,15.6397251 16.4304694,16.4802807 13.882626,16.4802807 C8.11682147,16.4802807 4.79415444,13.0403597 0.947957942,9.05654973 L0.480271616,8.56916873 L0.550075545,8.4985338 C3.24450721,5.68726365 5.20599762,3.97789838 7.11862528,2.76297761 C9.38725298,1.32908857 11.537214,0.658056748 13.882626,0.658056748 C19.6903129,0.658056748 24.0600389,4.89615245 27.2221569,8.58329571 Z M13.882626,1.7882156 C9.55478241,1.7882156 6.1134487,4.3522635 1.98803649,8.56916873 C3.6563504,10.2997245 5.38748784,12.0797247 7.30709589,13.3582169 C9.40121377,14.7567885 11.4953316,15.3501218 13.882626,15.3501218 C19.1249011,15.3501218 23.138627,11.3521849 25.8121175,8.61861318 C23.9762742,6.54194628 22.3358819,5.05154929 20.6675679,3.94964441 C18.412901,2.45924742 16.1931361,1.7882156 13.882626,1.7882156 Z M13.882626,13.5151165 C11.1882482,13.5151165 8.99486583,11.2956225 8.99486583,8.56916873 C8.99486583,5.84271499 11.1882482,3.62322091 13.882626,3.62322091 C16.5770038,3.62322091 18.7703862,5.84271499 18.7703862,8.56916873 C18.7703862,11.2956225 16.5770038,13.5151165 13.882626,13.5151165 Z M14.2011394,5.07590923 C11.9654492,5.07590923 10.146588,6.91642356 10.146588,9.1787291 L11.3424629,9.1787291 C11.3424629,7.58474973 12.6259127,6.28602081 14.2011394,6.28602081 L14.2011394,5.07590923 Z" id="Combined-Shape"></path>
            </g>
        </g>
    </g>
</svg>