<svg fill="#3c48cc" xmlns="http://www.w3.org/2000/svg" width="20" height="17" viewBox="0 0 20 17">
    <path fill="#3c48cc" fill-rule="evenodd" d="M17.26 15.394h1.39c.302 0 .548.24.548.536a.542.542 0 0 1-.548.537H.547A.542.542 0 0 1 0 15.93c0-.296.245-.536.547-.536h1.39V7.897l-1.027.89a.554.554 0 0 1-.773-.046.529.529 0 0 1 .047-.757L9.236.134a.556.556 0 0 1 .726 0l9.05 7.85a.529.529 0 0 1 .048.757.552.552 0 0 1-.773.047l-1.027-.891v7.497zM3.031 6.948v8.446h13.135V6.948L9.599 1.252 3.03 6.948z"/>
</svg>
